<?xml version="1.0" encoding="UTF-8" standalone="no"?>
<!DOCTYPE svg PUBLIC "-//W3C//DTD SVG 1.1//EN" "http://www.w3.org/Graphics/SVG/1.1/DTD/svg11.dtd">
<svg width="100%" height="100%" viewBox="0 0 1200 360" version="1.1" xmlns="http://www.w3.org/2000/svg" xmlns:xlink="http://www.w3.org/1999/xlink" xml:space="preserve" xmlns:serif="http://www.serif.com/" style="fill-rule:evenodd;clip-rule:evenodd;">
    <g>
        <g transform="matrix(1,0,0,1,16,0)">
            <path d="M137,45L137,253C137,254.656 135.656,256 134,256L121,256C119.344,256 118,254.656 118,253L118,45C118,43.344 119.344,42 121,42L134,42C135.656,42 137,43.344 137,45Z" style="fill:rgb(34,51,74);"/>
        </g>
        <path d="M307,44L275,44L163,148L291,256L321,256L191,148L307,44Z" style="fill:rgb(34,51,74);fill-rule:nonzero;"/>
    </g>
    <g>
        <g transform="matrix(1.18602,0,0,1,-76.0815,0)">
            <path d="M409,92C372,104 350,139 350,176C350,214 372,246 409,257" style="fill:none;fill-rule:nonzero;stroke:rgb(124,153,180);stroke-width:20px;"/>
        </g>
        <g transform="matrix(1.18577,0,0,1,-83.2257,0)">
            <path d="M448,92C485,104 507,139 507,176C507,214 485,246 448,257" style="fill:none;fill-rule:nonzero;stroke:rgb(124,153,180);stroke-width:20px;"/>
        </g>
    </g>
    <g transform="matrix(1,0,0,1,0,-3)">
        <circle cx="398" cy="61" r="14" style="fill:rgb(227,165,79);"/>
    </g>
    <g transform="matrix(1,0,0,1,0,-3)">
        <circle cx="459" cy="61" r="14" style="fill:rgb(227,165,79);"/>
    </g>
    <path d="M560,256L560,46L628,46C680,46 708,76 708,118C708,161 678,189 631,189L611,189L708,256" style="fill:none;fill-rule:nonzero;stroke:rgb(34,51,74);stroke-width:18px;stroke-linecap:round;stroke-linejoin:round;"/>
    <path d="M750,125L750,200C750,241 774,261 810,261C847,261 871,239 871,199L871,125" style="fill:none;fill-rule:nonzero;stroke:rgb(34,51,74);stroke-width:18px;stroke-linecap:round;stroke-linejoin:round;"/>
    <path d="M927,256L927,166C927,136 946,119 974,119C1001,119 1021,137 1021,168L1021,256M1021,168C1021,137 1041,119 1069,119C1097,119 1117,137 1117,168L1117,256" style="fill:none;fill-rule:nonzero;stroke:rgb(34,51,74);stroke-width:18px;stroke-linecap:round;stroke-linejoin:round;"/>
    <path d="M262.852,325L264.893,325L264.893,318.791L268.341,318.791C268.47,318.791 268.588,318.791 268.717,318.78L272.047,325L274.411,325L270.823,318.415C272.842,317.706 273.788,316.063 273.788,313.936C273.788,311.078 272.069,308.994 268.331,308.994L262.852,308.994L262.852,325ZM264.893,316.976L264.893,310.788L268.223,310.788C270.769,310.788 271.757,312.034 271.757,313.936C271.757,315.815 270.769,316.976 268.245,316.976L264.893,316.976ZM285.01,325L294.861,325L294.861,323.195L287.051,323.195L287.051,317.824L294.238,317.824L294.238,316.02L287.051,316.02L287.051,310.799L294.764,310.799L294.764,308.994L285.01,308.994L285.01,325ZM306.234,325L308.275,325L308.275,317.717L316.675,317.717L316.675,325L318.716,325L318.716,308.994L316.675,308.994L316.675,315.912L308.275,315.912L308.275,308.994L306.234,308.994L306.234,325ZM330.583,325L340.434,325L340.434,323.195L332.625,323.195L332.625,317.824L339.811,317.824L339.811,316.02L332.625,316.02L332.625,310.799L340.337,310.799L340.337,308.994L330.583,308.994L330.583,325ZM350.432,325L352.602,325L354.149,320.531L360.745,320.531L362.345,325L364.494,325L358.607,308.994L356.244,308.994L350.432,325ZM354.772,318.748L355.9,315.504C356.244,314.516 356.738,312.99 357.415,310.627C358.091,312.947 358.564,314.43 358.951,315.504L360.111,318.748L354.772,318.748ZM374.986,325L377.027,325L377.027,318.791L380.475,318.791C380.604,318.791 380.722,318.791 380.851,318.78L384.181,325L386.544,325L382.957,318.415C384.976,317.706 385.921,316.063 385.921,313.936C385.921,311.078 384.203,308.994 380.464,308.994L374.986,308.994L374.986,325ZM377.027,316.976L377.027,310.788L380.357,310.788C382.903,310.788 383.891,312.034 383.891,313.936C383.891,315.815 382.903,316.976 380.378,316.976L377.027,316.976ZM402.268,325.279C405.963,325.279 408.08,323.26 408.08,320.639C408.08,317.652 405.265,316.686 403.546,316.213L401.946,315.772C400.775,315.45 398.895,314.859 398.895,313.184C398.895,311.68 400.27,310.584 402.343,310.584C404.245,310.584 405.684,311.476 405.867,313.033L407.865,313.033C407.768,310.616 405.566,308.779 402.408,308.779C399.314,308.779 396.908,310.573 396.908,313.28C396.908,315.407 398.412,316.729 400.99,317.459L402.923,318.007C404.631,318.49 406.092,319.06 406.092,320.606C406.092,322.314 404.438,323.453 402.268,323.453C400.388,323.453 398.712,322.626 398.551,320.811L396.457,320.811C396.639,323.496 398.798,325.279 402.268,325.279ZM419.259,325L429.11,325L429.11,323.195L421.3,323.195L421.3,317.824L428.487,317.824L428.487,316.02L421.3,316.02L421.3,310.799L429.013,310.799L429.013,308.994L419.259,308.994L419.259,325ZM453.79,310.799L458.828,310.799L458.828,325L460.869,325L460.869,310.799L465.885,310.799L465.885,308.994L453.79,308.994L453.79,310.799ZM483.36,325.215C487.463,325.215 490.45,322.078 490.45,317.008C490.45,311.927 487.463,308.779 483.36,308.779C479.256,308.779 476.249,311.927 476.249,317.008C476.249,322.078 479.256,325.215 483.36,325.215ZM483.36,323.324C480.481,323.324 478.236,321.09 478.236,317.008C478.236,312.904 480.481,310.67 483.36,310.67C486.217,310.67 488.462,312.894 488.462,317.008C488.462,321.101 486.217,323.324 483.36,323.324ZM501.694,325L503.638,325L503.638,315.858C503.638,314.623 503.595,312.732 503.563,311.207C504.197,313.087 504.82,314.956 505.174,315.858L508.805,325L510.578,325L514.155,315.858C514.52,314.924 515.186,313.001 515.766,311.175C515.723,312.84 515.691,314.677 515.691,315.858L515.691,325L517.7,325L517.7,308.994L514.789,308.994L510.9,319.092C510.588,319.897 510.094,321.477 509.718,322.733C509.342,321.434 508.837,319.865 508.537,319.092L504.594,308.994L501.694,308.994L501.694,325ZM536.055,325.215C540.159,325.215 543.145,322.078 543.145,317.008C543.145,311.927 540.159,308.779 536.055,308.779C531.952,308.779 528.944,311.927 528.944,317.008C528.944,322.078 531.952,325.215 536.055,325.215ZM536.055,323.324C533.176,323.324 530.931,321.09 530.931,317.008C530.931,312.904 533.176,310.67 536.055,310.67C538.913,310.67 541.158,312.894 541.158,317.008C541.158,321.101 538.913,323.324 536.055,323.324ZM554.389,325L556.43,325L556.43,318.791L559.878,318.791C560.007,318.791 560.125,318.791 560.254,318.78L563.584,325L565.948,325L562.36,318.415C564.379,317.706 565.325,316.063 565.325,313.936C565.325,311.078 563.606,308.994 559.868,308.994L554.389,308.994L554.389,325ZM556.43,316.976L556.43,310.788L559.76,310.788C562.306,310.788 563.294,312.034 563.294,313.936C563.294,315.815 562.306,316.976 559.782,316.976L556.43,316.976ZM576.547,325L578.588,325L578.588,318.791L582.037,318.791C582.166,318.791 582.284,318.791 582.413,318.78L585.743,325L588.106,325L584.518,318.415C586.538,317.706 587.483,316.063 587.483,313.936C587.483,311.078 585.764,308.994 582.026,308.994L576.547,308.994L576.547,325ZM578.588,316.976L578.588,310.788L581.918,310.788C584.464,310.788 585.453,312.034 585.453,313.936C585.453,315.815 584.464,316.976 581.94,316.976L578.588,316.976ZM605.194,325.215C609.297,325.215 612.284,322.078 612.284,317.008C612.284,311.927 609.297,308.779 605.194,308.779C601.09,308.779 598.083,311.927 598.083,317.008C598.083,322.078 601.09,325.215 605.194,325.215ZM605.194,323.324C602.315,323.324 600.07,321.09 600.07,317.008C600.07,312.904 602.315,310.67 605.194,310.67C608.051,310.67 610.296,312.894 610.296,317.008C610.296,321.101 608.051,323.324 605.194,323.324ZM626.514,325L628.899,325L631.638,314.859C631.95,313.699 632.186,312.614 632.422,311.304C632.669,312.711 632.927,313.839 633.207,314.859L635.957,325L638.331,325L642.713,308.994L640.608,308.994L638.083,318.813C637.74,320.166 637.417,321.552 637.138,323.034C636.837,321.552 636.515,320.166 636.161,318.813L633.593,308.994L631.273,308.994L628.684,318.813C628.319,320.188 628.007,321.595 627.717,323.099C627.427,321.595 627.116,320.188 626.772,318.813L624.237,308.994L622.153,308.994L626.514,325ZM652.991,315.085L654.473,315.085L656.149,308.994L653.936,308.994L652.991,315.085ZM672.066,325.279C675.761,325.279 677.877,323.26 677.877,320.639C677.877,317.652 675.063,316.686 673.344,316.213L671.744,315.772C670.573,315.45 668.693,314.859 668.693,313.184C668.693,311.68 670.068,310.584 672.141,310.584C674.042,310.584 675.482,311.476 675.665,313.033L677.663,313.033C677.566,310.616 675.364,308.779 672.206,308.779C669.112,308.779 666.706,310.573 666.706,313.28C666.706,315.407 668.209,316.729 670.788,317.459L672.721,318.007C674.429,318.49 675.89,319.06 675.89,320.606C675.89,322.314 674.236,323.453 672.066,323.453C670.186,323.453 668.51,322.626 668.349,320.811L666.254,320.811C666.437,323.496 668.596,325.279 672.066,325.279ZM707.756,325L710.109,325L715.931,308.994L713.761,308.994L710.463,318.49C710.12,319.479 709.615,321.004 708.938,323.346C708.272,321.058 707.756,319.479 707.402,318.49L704.018,308.994L701.87,308.994L707.756,325ZM726.423,325L736.274,325L736.274,323.195L728.464,323.195L728.464,317.824L735.651,317.824L735.651,316.02L728.464,316.02L728.464,310.799L736.177,310.799L736.177,308.994L726.423,308.994L726.423,325ZM747.647,325L749.699,325L749.699,315.869C749.699,315.096 749.624,313.495 749.538,311.443C750.784,313.667 751.396,314.741 752.126,315.891L757.927,325L760.355,325L760.355,308.994L758.314,308.994L758.314,318.813C758.314,319.672 758.325,321.036 758.454,322.583C757.723,321.133 756.993,319.908 756.563,319.231L750.053,308.994L747.647,308.994L747.647,325ZM778.485,325.258C782.255,325.258 784.726,322.852 784.726,319.554L784.726,308.994L782.685,308.994L782.685,319.393C782.685,321.691 781.095,323.367 778.485,323.367C775.864,323.367 774.263,321.691 774.263,319.393L774.263,308.994L772.222,308.994L772.222,319.554C772.222,322.852 774.693,325.258 778.485,325.258ZM796.593,325L806.444,325L806.444,323.195L798.634,323.195L798.634,317.824L805.821,317.824L805.821,316.02L798.634,316.02L798.634,310.799L806.347,310.799L806.347,308.994L796.593,308.994L796.593,325ZM831.124,310.799L836.162,310.799L836.162,325L838.203,325L838.203,310.799L843.219,310.799L843.219,308.994L831.124,308.994L831.124,310.799ZM860.694,325.215C864.797,325.215 867.784,322.078 867.784,317.008C867.784,311.927 864.797,308.779 860.694,308.779C856.59,308.779 853.583,311.927 853.583,317.008C853.583,322.078 856.59,325.215 860.694,325.215ZM860.694,323.324C857.815,323.324 855.57,321.09 855.57,317.008C855.57,312.904 857.815,310.67 860.694,310.67C863.551,310.67 865.796,312.894 865.796,317.008C865.796,321.101 863.551,323.324 860.694,323.324ZM884.023,325C888.9,325 891.661,321.971 891.661,316.965C891.661,312.002 888.9,308.994 884.227,308.994L879.028,308.994L879.028,325L884.023,325ZM881.069,323.195L881.069,310.799L884.087,310.799C887.793,310.799 889.684,313.119 889.684,316.965C889.684,320.854 887.793,323.195 883.894,323.195L881.069,323.195ZM901.53,325L903.7,325L905.247,320.531L911.842,320.531L913.443,325L915.591,325L909.705,308.994L907.341,308.994L901.53,325ZM905.87,318.748L906.998,315.504C907.341,314.516 907.835,312.99 908.512,310.627C909.189,312.947 909.662,314.43 910.048,315.504L911.208,318.748L905.87,318.748ZM930.595,325L932.636,325L932.636,318.447L938.523,308.994L936.17,308.994L933.012,314.161C932.497,315.01 932.067,315.74 931.637,316.771C931.208,315.772 930.778,315.042 930.241,314.161L927.072,308.994L924.708,308.994L930.595,318.447L930.595,325Z" style="fill:rgb(124,153,180);"/>
</svg>
